<svg xmlns="http://www.w3.org/2000/svg" width="16" height="16">
    <g fill="none" fill-rule="nonzero">
        <g fill="#9AA7B0" fill-opacity=".8">
            <path d="M6.996 1 3 4.997h3.996z"/>
            <path d="M7.995 14.988H3V5.996h4.996V1h4.996v6.095a4.996 4.996 0 0 0-4.997 7.893Z"/>
        </g>
        <path fill="#FFF" d="m11.738 8.002-.121.011a4.01 4.01 0 0 0-3.581 3.405c-.032.22-.036.285-.036.583s.004.363.036.582a4.016 4.016 0 0 0 3.58 3.407c.122.013.646.013.767 0a4.04 4.04 0 0 0 1.441-.421c.07-.036.083-.045.073-.053-.006-.004-.3-.398-.651-.873l-.64-.864-.802-1.186c-.44-.652-.803-1.186-.807-1.186-.003 0-.006.527-.007 1.17-.003 1.127-.003 1.172-.018 1.199a.142.142 0 0 1-.068.07c-.025.013-.047.016-.165.016h-.136l-.036-.023a.146.146 0 0 1-.052-.057l-.016-.035.001-1.568.002-1.568.025-.03a.215.215 0 0 1 .058-.049c.032-.015.044-.017.18-.017.159 0 .186.006.227.052.012.012.446.666.965 1.453l1.578 2.39.634.96.032-.021c.283-.185.584-.447.821-.721.506-.581.833-1.29.942-2.045a3.06 3.06 0 0 0 .036-.582 3.06 3.06 0 0 0-.036-.583 4.016 4.016 0 0 0-3.57-3.406 10.34 10.34 0 0 0-.656-.01Zm1.638 2.42a.158.158 0 0 1 .079.092c.006.02.007.455.006 1.434l-.003 1.406-.247-.38-.25-.38v-1.022c0-.66.004-1.032.009-1.05a.16.16 0 0 1 .077-.098c.032-.017.044-.018.167-.018.115 0 .136.001.162.015Z"/>
    </g>
</svg>
