<?xml version="1.0" encoding="UTF-8"?>
<svg width="16px" height="16px" viewBox="0 0 16 16" version="1.1" xmlns="http://www.w3.org/2000/svg" xmlns:xlink="http://www.w3.org/1999/xlink">
    <title>File</title>
    <g id="File" stroke="none" stroke-width="1" fill="none" fill-rule="evenodd">
        <g id="config" transform="translate(3.000000, 1.000000)" fill="#9AA7B0" fill-opacity="0.8" fill-rule="nonzero">
            <polygon id="Path" points="3.99648349 0.000299736262 0 3.99678323 3.99648349 3.99678323"/>
            <path d="M4.99501338,13.9876922 L0.000399648349,13.9876922 L0.000399648349,4.99560437 L4.99600402,4.99560437 L4.99600402,0 L9.99160838,0 L9.99160838,5.99472524 L9.99160838,6.09503631 C9.66865865,6.02945336 9.33439387,5.99502498 8.99208786,5.99502498 C6.23309175,5.99502498 3.99648349,8.23163324 3.99648349,10.9906293 C3.99648349,12.1151111 4.3680124,13.1528177 4.99501338,13.9876922 Z" id="Path"/>
        </g>
        <g id="next" transform="translate(8.000000, 8.000000)" fill="#000000" fill-rule="nonzero">
            <path d="M3.738024,0.00215283622 C3.720824,0.00371662822 3.66608,0.00918996422 3.616816,0.0130994842 C2.480544,0.115528524 1.416224,0.728536524 0.7421312,1.67072772 C0.3667648,2.19459972 0.1266864,2.78883972 0.03597264,3.41827172 C0.003910072,3.63798372 0,3.70287972 0,4.00078372 C0,4.29868772 0.003910072,4.36358372 0.03597264,4.58329572 C0.2533728,6.08532772 1.322384,7.34731172 2.77224,7.81488772 C3.031864,7.89855172 3.305568,7.95562372 3.616816,7.99003172 C3.738024,8.00335972 4.261976,8.00335972 4.383184,7.99003172 C4.920432,7.93060772 5.37556,7.79767972 5.82444,7.56858372 C5.893256,7.53339972 5.906552,7.52401572 5.897168,7.51619972 C5.890912,7.51151172 5.597656,7.11821572 5.245744,6.64281572 L4.606064,5.77882372 L3.804496,4.59267972 C3.36344,3.94057572 3.000584,3.40731972 2.997456,3.40731972 C2.994328,3.40654372 2.9912,3.93354372 2.98964,4.57703972 C2.987296,5.70375972 2.986512,5.74911172 2.972432,5.77569572 C2.952104,5.81400772 2.936464,5.82964772 2.903616,5.84684772 C2.878592,5.85935972 2.856696,5.86170372 2.738616,5.86170372 L2.60332,5.86170372 L2.567352,5.83902372 C2.543888,5.82416772 2.526688,5.80462372 2.51496,5.78195172 L2.498536,5.74675972 L2.500096,4.17905572 L2.50244,2.61056772 L2.526688,2.58007172 C2.5392,2.56365572 2.565784,2.54254372 2.584552,2.53237572 C2.616616,2.51673572 2.629128,2.51517572 2.764416,2.51517572 C2.923952,2.51517572 2.950536,2.52143172 2.991984,2.56678372 C3.003712,2.57928772 3.437736,3.23295972 3.956992,4.02032772 C4.476248,4.80770372 5.186312,5.88281572 5.535096,6.41059172 L6.16852,7.36998372 L6.200584,7.34887172 C6.484456,7.16434372 6.784752,6.90162372 7.02248,6.62795972 C7.528448,6.04701572 7.854544,5.33860772 7.964024,4.58329572 C7.996088,4.36358372 8,4.29868772 8,4.00078372 C8,3.70287972 7.996088,3.63798372 7.964024,3.41827172 C7.746624,1.91623972 6.677616,0.654256524 5.22776,0.186681324 C4.97204,0.103799724 4.699904,0.0467210042 4.39492,0.0123174842 C4.31984,0.00449848422 3.802936,-0.00410235578 3.738024,0.00215283622 Z M5.37556,2.42134372 C5.413096,2.44011172 5.4436,2.47607972 5.454544,2.51360772 C5.4608,2.53394372 5.462368,2.96867972 5.4608,3.94839172 L5.458456,5.35424772 L5.21056,4.97424772 L4.96188,4.59424772 L4.96188,3.57230372 C4.96188,2.91159972 4.965008,2.54019972 4.969696,2.52221572 C4.982208,2.47842372 5.009576,2.44402372 5.04712,2.42369572 C5.079176,2.40727172 5.090912,2.40571172 5.213688,2.40571172 C5.329424,2.40571172 5.349752,2.40727172 5.37556,2.42134372 Z" id="Shape"/>
        </g>
    </g>
</svg>